M48
; DRILL file KiCad 10.0.0 date 2026-04-05T12:12:54
; FORMAT={-:-/ absolute / metric / decimal}
; #@! TF.CreationDate,2026-04-05T12:12:54+02:00
; #@! TF.GenerationSoftware,Kicad,Pcbnew,10.0.0
; #@! TF.FileFunction,Plated,1,2,PTH
FMAT,2
METRIC
; #@! TA.AperFunction,Plated,PTH,ComponentDrill
T1C0.787
; #@! TA.AperFunction,Plated,PTH,ComponentDrill
T2C0.800
; #@! TA.AperFunction,Plated,PTH,ComponentDrill
T3C0.850
; #@! TA.AperFunction,Plated,PTH,ComponentDrill
T4C0.900
; #@! TA.AperFunction,Plated,PTH,ComponentDrill
T5C1.000
%
G90
G05
T1
X93.041Y-69.161
X93.041Y-71.701
X93.041Y-74.241
X93.041Y-76.781
X93.041Y-79.321
X93.041Y-81.861
X93.041Y-84.401
X93.041Y-86.941
X100.661Y-69.161
X100.661Y-71.701
X100.661Y-74.241
X100.661Y-76.781
X100.661Y-79.321
X100.661Y-81.861
X100.661Y-84.401
X100.661Y-86.941
T2
X92.541Y-93.321
X92.541Y-95.861
X92.541Y-98.401
X92.541Y-100.941
X100.161Y-93.321
X100.161Y-95.861
X100.161Y-98.401
X100.161Y-100.941
X106.086Y-69.966
X107.161Y-83.441
X109.161Y-83.441
X110.661Y-101.131
X110.661Y-108.751
X113.661Y-73.441
X113.661Y-81.061
X113.706Y-69.966
T3
X107.661Y-91.901
X107.661Y-94.441
X107.661Y-96.981
T4
X68.391Y-68.251
X68.661Y-79.751
X70.931Y-68.251
X71.201Y-79.751
X75.161Y-91.751
X77.701Y-91.751
X79.121Y-58.751
X81.661Y-58.751
X84.391Y-103.751
X86.931Y-103.751
X114.621Y-60.751
X117.161Y-60.751
X121.391Y-106.751
X123.931Y-106.751
X129.891Y-63.751
X132.431Y-63.751
X132.891Y-96.751
X135.431Y-96.751
X138.391Y-79.251
X140.931Y-79.251
T5
X98.161Y-107.941
X100.701Y-107.941
X114.161Y-89.941
X119.161Y-89.941
M30
