%TF.GenerationSoftware,KiCad,Pcbnew,10.0.0*%
%TF.CreationDate,2026-04-05T12:12:38+02:00*%
%TF.ProjectId,ledrunner,6c656472-756e-46e6-9572-2e6b69636164,rev?*%
%TF.SameCoordinates,Original*%
%TF.FileFunction,Soldermask,Top*%
%TF.FilePolarity,Negative*%
%FSLAX46Y46*%
G04 Gerber Fmt 4.6, Leading zero omitted, Abs format (unit mm)*
G04 Created by KiCad (PCBNEW 10.0.0) date 2026-04-05 12:12:38*
%MOMM*%
%LPD*%
G01*
G04 APERTURE LIST*
G04 Aperture macros list*
%AMRoundRect*
0 Rectangle with rounded corners*
0 $1 Rounding radius*
0 $2 $3 $4 $5 $6 $7 $8 $9 X,Y pos of 4 corners*
0 Add a 4 corners polygon primitive as box body*
4,1,4,$2,$3,$4,$5,$6,$7,$8,$9,$2,$3,0*
0 Add four circle primitives for the rounded corners*
1,1,$1+$1,$2,$3*
1,1,$1+$1,$4,$5*
1,1,$1+$1,$6,$7*
1,1,$1+$1,$8,$9*
0 Add four rect primitives between the rounded corners*
20,1,$1+$1,$2,$3,$4,$5,0*
20,1,$1+$1,$4,$5,$6,$7,0*
20,1,$1+$1,$6,$7,$8,$9,0*
20,1,$1+$1,$8,$9,$2,$3,0*%
G04 Aperture macros list end*
%ADD10RoundRect,0.250000X-0.550000X-0.550000X0.550000X-0.550000X0.550000X0.550000X-0.550000X0.550000X0*%
%ADD11C,1.600000*%
%ADD12RoundRect,0.412500X0.412500X-0.412500X0.412500X0.412500X-0.412500X0.412500X-0.412500X-0.412500X0*%
%ADD13C,1.650000*%
%ADD14R,1.800000X1.800000*%
%ADD15C,1.800000*%
%ADD16R,1.700000X1.700000*%
%ADD17C,1.700000*%
%ADD18C,2.000000*%
%ADD19R,1.295400X1.295400*%
%ADD20C,1.295400*%
%ADD21RoundRect,0.250000X0.550000X0.550000X-0.550000X0.550000X-0.550000X-0.550000X0.550000X-0.550000X0*%
G04 APERTURE END LIST*
D10*
%TO.C,C2*%
X107160967Y-83440679D03*
D11*
X109160967Y-83440679D03*
%TD*%
D12*
%TO.C,RV1*%
X107660967Y-96980679D03*
D13*
X107660967Y-94440679D03*
X107660967Y-91900679D03*
%TD*%
D11*
%TO.C,R2*%
X113660967Y-73440679D03*
X113660967Y-81060679D03*
%TD*%
%TO.C,R3*%
X110660967Y-101130679D03*
X110660967Y-108750679D03*
%TD*%
D14*
%TO.C,D3*%
X68660967Y-79750679D03*
D15*
X71200967Y-79750679D03*
%TD*%
D14*
%TO.C,D8*%
X138390967Y-79250679D03*
D15*
X140930967Y-79250679D03*
%TD*%
D16*
%TO.C,J1*%
X98160967Y-107940679D03*
D17*
X100700967Y-107940679D03*
%TD*%
D14*
%TO.C,D6*%
X114620967Y-60750679D03*
D15*
X117160967Y-60750679D03*
%TD*%
D18*
%TO.C,C1*%
X114160967Y-89940679D03*
X119160967Y-89940679D03*
%TD*%
D14*
%TO.C,D2*%
X68390967Y-68250679D03*
D15*
X70930967Y-68250679D03*
%TD*%
D19*
%TO.C,U2*%
X93040967Y-69160679D03*
D20*
X93040967Y-71700679D03*
X93040967Y-74240679D03*
X93040967Y-76780679D03*
X93040967Y-79320679D03*
X93040967Y-81860679D03*
X93040967Y-84400679D03*
X93040967Y-86940679D03*
X100660967Y-86940679D03*
X100660967Y-84400679D03*
X100660967Y-81860679D03*
X100660967Y-79320679D03*
X100660967Y-76780679D03*
X100660967Y-74240679D03*
X100660967Y-71700679D03*
X100660967Y-69160679D03*
%TD*%
D14*
%TO.C,D10*%
X121390967Y-106750679D03*
D15*
X123930967Y-106750679D03*
%TD*%
D14*
%TO.C,D9*%
X132890967Y-96750679D03*
D15*
X135430967Y-96750679D03*
%TD*%
D21*
%TO.C,U1*%
X100160967Y-100940679D03*
D11*
X100160967Y-98400679D03*
X100160967Y-95860679D03*
X100160967Y-93320679D03*
X92540967Y-93320679D03*
X92540967Y-95860679D03*
X92540967Y-98400679D03*
X92540967Y-100940679D03*
%TD*%
D14*
%TO.C,D1*%
X79120967Y-58750679D03*
D15*
X81660967Y-58750679D03*
%TD*%
D14*
%TO.C,D5*%
X84390967Y-103750679D03*
D15*
X86930967Y-103750679D03*
%TD*%
D14*
%TO.C,D4*%
X75160967Y-91750679D03*
D15*
X77700967Y-91750679D03*
%TD*%
D11*
%TO.C,R1*%
X106085967Y-69965679D03*
X113705967Y-69965679D03*
%TD*%
D14*
%TO.C,D7*%
X129890967Y-63750679D03*
D15*
X132430967Y-63750679D03*
%TD*%
M02*
