%TF.GenerationSoftware,KiCad,Pcbnew,10.0.0*%
%TF.CreationDate,2026-04-05T12:12:38+02:00*%
%TF.ProjectId,ledrunner,6c656472-756e-46e6-9572-2e6b69636164,rev?*%
%TF.SameCoordinates,Original*%
%TF.FileFunction,Copper,L2,Bot*%
%TF.FilePolarity,Positive*%
%FSLAX46Y46*%
G04 Gerber Fmt 4.6, Leading zero omitted, Abs format (unit mm)*
G04 Created by KiCad (PCBNEW 10.0.0) date 2026-04-05 12:12:38*
%MOMM*%
%LPD*%
G01*
G04 APERTURE LIST*
G04 Aperture macros list*
%AMRoundRect*
0 Rectangle with rounded corners*
0 $1 Rounding radius*
0 $2 $3 $4 $5 $6 $7 $8 $9 X,Y pos of 4 corners*
0 Add a 4 corners polygon primitive as box body*
4,1,4,$2,$3,$4,$5,$6,$7,$8,$9,$2,$3,0*
0 Add four circle primitives for the rounded corners*
1,1,$1+$1,$2,$3*
1,1,$1+$1,$4,$5*
1,1,$1+$1,$6,$7*
1,1,$1+$1,$8,$9*
0 Add four rect primitives between the rounded corners*
20,1,$1+$1,$2,$3,$4,$5,0*
20,1,$1+$1,$4,$5,$6,$7,0*
20,1,$1+$1,$6,$7,$8,$9,0*
20,1,$1+$1,$8,$9,$2,$3,0*%
G04 Aperture macros list end*
%TA.AperFunction,ComponentPad*%
%ADD10RoundRect,0.250000X-0.550000X-0.550000X0.550000X-0.550000X0.550000X0.550000X-0.550000X0.550000X0*%
%TD*%
%TA.AperFunction,ComponentPad*%
%ADD11C,1.600000*%
%TD*%
%TA.AperFunction,ComponentPad*%
%ADD12RoundRect,0.412500X0.412500X-0.412500X0.412500X0.412500X-0.412500X0.412500X-0.412500X-0.412500X0*%
%TD*%
%TA.AperFunction,ComponentPad*%
%ADD13C,1.650000*%
%TD*%
%TA.AperFunction,ComponentPad*%
%ADD14R,1.800000X1.800000*%
%TD*%
%TA.AperFunction,ComponentPad*%
%ADD15C,1.800000*%
%TD*%
%TA.AperFunction,ComponentPad*%
%ADD16R,1.700000X1.700000*%
%TD*%
%TA.AperFunction,ComponentPad*%
%ADD17C,1.700000*%
%TD*%
%TA.AperFunction,ComponentPad*%
%ADD18C,2.000000*%
%TD*%
%TA.AperFunction,ComponentPad*%
%ADD19R,1.295400X1.295400*%
%TD*%
%TA.AperFunction,ComponentPad*%
%ADD20C,1.295400*%
%TD*%
%TA.AperFunction,ComponentPad*%
%ADD21RoundRect,0.250000X0.550000X0.550000X-0.550000X0.550000X-0.550000X-0.550000X0.550000X-0.550000X0*%
%TD*%
%TA.AperFunction,Conductor*%
%ADD22C,0.200000*%
%TD*%
G04 APERTURE END LIST*
D10*
%TO.P,C2,1*%
%TO.N,Net-(U1-THRES)*%
X107160967Y-83440679D03*
D11*
%TO.P,C2,2*%
%TO.N,GND*%
X109160967Y-83440679D03*
%TD*%
D12*
%TO.P,RV1,1,1_1*%
%TO.N,Net-(R2-Pad2)*%
X107660967Y-96980679D03*
D13*
%TO.P,RV1,2,2_2*%
%TO.N,Net-(U1-DISCH)*%
X107660967Y-94440679D03*
%TO.P,RV1,3,3_3*%
%TO.N,Net-(U1-THRES)*%
X107660967Y-91900679D03*
%TD*%
D11*
%TO.P,R2,1*%
%TO.N,Net-(U1-DISCH)*%
X113660967Y-73440679D03*
%TO.P,R2,2*%
%TO.N,Net-(R2-Pad2)*%
X113660967Y-81060679D03*
%TD*%
%TO.P,R3,1*%
%TO.N,Net-(D1-K)*%
X110660967Y-101130679D03*
%TO.P,R3,2*%
%TO.N,GND*%
X110660967Y-108750679D03*
%TD*%
D14*
%TO.P,D3,1,K_1*%
%TO.N,Net-(D1-K)*%
X68660967Y-79750679D03*
D15*
%TO.P,D3,2,A_2*%
%TO.N,Net-(D3-A)*%
X71200967Y-79750679D03*
%TD*%
D14*
%TO.P,D8,1,K_1*%
%TO.N,Net-(D1-K)*%
X138390967Y-79250679D03*
D15*
%TO.P,D8,2,A_2*%
%TO.N,Net-(D8-A)*%
X140930967Y-79250679D03*
%TD*%
D16*
%TO.P,J1,1,Pin_1_1*%
%TO.N,+5V*%
X98160967Y-107940679D03*
D17*
%TO.P,J1,2,Pin_2_2*%
%TO.N,GND*%
X100700967Y-107940679D03*
%TD*%
D14*
%TO.P,D6,1,K_1*%
%TO.N,Net-(D1-K)*%
X114620967Y-60750679D03*
D15*
%TO.P,D6,2,A_2*%
%TO.N,Net-(D6-A)*%
X117160967Y-60750679D03*
%TD*%
D18*
%TO.P,C1,1*%
%TO.N,GND*%
X114160967Y-89940679D03*
%TO.P,C1,2*%
%TO.N,Net-(U1-CONT)*%
X119160967Y-89940679D03*
%TD*%
D14*
%TO.P,D2,1,K_1*%
%TO.N,Net-(D1-K)*%
X68390967Y-68250679D03*
D15*
%TO.P,D2,2,A_2*%
%TO.N,Net-(D2-A)*%
X70930967Y-68250679D03*
%TD*%
D19*
%TO.P,U2,1,Q5_1*%
%TO.N,Net-(D6-A)*%
X93040967Y-69160679D03*
D20*
%TO.P,U2,2,Q1_2*%
%TO.N,Net-(D2-A)*%
X93040967Y-71700679D03*
%TO.P,U2,3,Q0_3*%
%TO.N,Net-(D1-A)*%
X93040967Y-74240679D03*
%TO.P,U2,4,Q2_4*%
%TO.N,Net-(D3-A)*%
X93040967Y-76780679D03*
%TO.P,U2,5,Q6_5*%
%TO.N,Net-(D7-A)*%
X93040967Y-79320679D03*
%TO.P,U2,6,Q7_6*%
%TO.N,Net-(D8-A)*%
X93040967Y-81860679D03*
%TO.P,U2,7,Q3_7*%
%TO.N,Net-(D4-A)*%
X93040967Y-84400679D03*
%TO.P,U2,8,VSS_8*%
%TO.N,GND*%
X93040967Y-86940679D03*
%TO.P,U2,9,Q8_9*%
%TO.N,Net-(D9-A)*%
X100660967Y-86940679D03*
%TO.P,U2,10,Q4_10*%
%TO.N,Net-(D5-A)*%
X100660967Y-84400679D03*
%TO.P,U2,11,Q9_11*%
%TO.N,Net-(D10-A)*%
X100660967Y-81860679D03*
%TO.P,U2,12,Cout_12*%
%TO.N,unconnected-(U2-Cout-Pad12)*%
X100660967Y-79320679D03*
%TO.P,U2,13,CKEN_13*%
%TO.N,GND*%
X100660967Y-76780679D03*
%TO.P,U2,14,CLK_14*%
%TO.N,Net-(U1-OUT)*%
X100660967Y-74240679D03*
%TO.P,U2,15,Reset_15*%
%TO.N,GND*%
X100660967Y-71700679D03*
%TO.P,U2,16,VDD_16*%
%TO.N,+5V*%
X100660967Y-69160679D03*
%TD*%
D14*
%TO.P,D10,1,K_1*%
%TO.N,Net-(D1-K)*%
X121390967Y-106750679D03*
D15*
%TO.P,D10,2,A_2*%
%TO.N,Net-(D10-A)*%
X123930967Y-106750679D03*
%TD*%
D14*
%TO.P,D9,1,K_1*%
%TO.N,Net-(D1-K)*%
X132890967Y-96750679D03*
D15*
%TO.P,D9,2,A_2*%
%TO.N,Net-(D9-A)*%
X135430967Y-96750679D03*
%TD*%
D21*
%TO.P,U1,1,GND_1*%
%TO.N,GND*%
X100160967Y-100940679D03*
D11*
%TO.P,U1,2,TRIG_2*%
%TO.N,Net-(U1-THRES)*%
X100160967Y-98400679D03*
%TO.P,U1,3,OUT_3*%
%TO.N,Net-(U1-OUT)*%
X100160967Y-95860679D03*
%TO.P,U1,4,~{RST}_4*%
%TO.N,+5V*%
X100160967Y-93320679D03*
%TO.P,U1,5,CONT_5*%
%TO.N,Net-(U1-CONT)*%
X92540967Y-93320679D03*
%TO.P,U1,6,THRES_6*%
%TO.N,Net-(U1-THRES)*%
X92540967Y-95860679D03*
%TO.P,U1,7,DISCH_7*%
%TO.N,Net-(U1-DISCH)*%
X92540967Y-98400679D03*
%TO.P,U1,8,VCC_8*%
%TO.N,+5V*%
X92540967Y-100940679D03*
%TD*%
D14*
%TO.P,D1,1,K_1*%
%TO.N,Net-(D1-K)*%
X79120967Y-58750679D03*
D15*
%TO.P,D1,2,A_2*%
%TO.N,Net-(D1-A)*%
X81660967Y-58750679D03*
%TD*%
D14*
%TO.P,D5,1,K_1*%
%TO.N,Net-(D1-K)*%
X84390967Y-103750679D03*
D15*
%TO.P,D5,2,A_2*%
%TO.N,Net-(D5-A)*%
X86930967Y-103750679D03*
%TD*%
D14*
%TO.P,D4,1,K_1*%
%TO.N,Net-(D1-K)*%
X75160967Y-91750679D03*
D15*
%TO.P,D4,2,A_2*%
%TO.N,Net-(D4-A)*%
X77700967Y-91750679D03*
%TD*%
D11*
%TO.P,R1,1*%
%TO.N,+5V*%
X106085967Y-69965679D03*
%TO.P,R1,2*%
%TO.N,Net-(U1-DISCH)*%
X113705967Y-69965679D03*
%TD*%
D14*
%TO.P,D7,1,K_1*%
%TO.N,Net-(D1-K)*%
X129890967Y-63750679D03*
D15*
%TO.P,D7,2,A_2*%
%TO.N,Net-(D7-A)*%
X132430967Y-63750679D03*
%TD*%
%TO.N,Net-(R2-Pad2)*%
D22*
X108785967Y-95855679D02*
X107660967Y-96980679D01*
X113660967Y-81060679D02*
X108785967Y-85935679D01*
X108785967Y-85935679D02*
X108785967Y-95855679D01*
%TO.N,Net-(D1-K)*%
X112040967Y-101130679D02*
X117660967Y-106750679D01*
X110660967Y-101130679D02*
X112040967Y-101130679D01*
X117660967Y-106750679D02*
X121390967Y-106750679D01*
X106840967Y-104950679D02*
X85590967Y-104950679D01*
X110660967Y-101130679D02*
X106840967Y-104950679D01*
X85590967Y-104950679D02*
X84390967Y-103750679D01*
%TO.N,+5V*%
X96160967Y-68750679D02*
X96570967Y-69160679D01*
X94660967Y-68750679D02*
X96160967Y-68750679D01*
X100160967Y-93320679D02*
X95090967Y-88250679D01*
X95090967Y-88250679D02*
X94660967Y-88250679D01*
X96570967Y-69160679D02*
X100660967Y-69160679D01*
X94660967Y-88250679D02*
X94660967Y-68750679D01*
%TO.N,Net-(U1-CONT)*%
X119160967Y-89940679D02*
X110995967Y-98105679D01*
X110995967Y-98105679D02*
X101421602Y-98105679D01*
X96520967Y-97300679D02*
X92540967Y-93320679D01*
X101421602Y-98105679D02*
X100616602Y-97300679D01*
X100616602Y-97300679D02*
X96520967Y-97300679D01*
%TO.N,Net-(D9-A)*%
X100660967Y-86940679D02*
X107640967Y-79960679D01*
X107640967Y-79960679D02*
X118640967Y-79960679D01*
X118640967Y-79960679D02*
X135430967Y-96750679D01*
%TO.N,Net-(U1-OUT)*%
X100160967Y-95860679D02*
X102160967Y-93860679D01*
X102160967Y-90250679D02*
X96660967Y-84750679D01*
X96660967Y-78240679D02*
X100660967Y-74240679D01*
X96660967Y-84750679D02*
X96660967Y-78240679D01*
X102160967Y-93860679D02*
X102160967Y-90250679D01*
%TD*%
M02*
