%TF.GenerationSoftware,KiCad,Pcbnew,10.0.0*%
%TF.CreationDate,2026-04-05T12:12:38+02:00*%
%TF.ProjectId,ledrunner,6c656472-756e-46e6-9572-2e6b69636164,rev?*%
%TF.SameCoordinates,Original*%
%TF.FileFunction,Copper,L1,Top*%
%TF.FilePolarity,Positive*%
%FSLAX46Y46*%
G04 Gerber Fmt 4.6, Leading zero omitted, Abs format (unit mm)*
G04 Created by KiCad (PCBNEW 10.0.0) date 2026-04-05 12:12:38*
%MOMM*%
%LPD*%
G01*
G04 APERTURE LIST*
G04 Aperture macros list*
%AMRoundRect*
0 Rectangle with rounded corners*
0 $1 Rounding radius*
0 $2 $3 $4 $5 $6 $7 $8 $9 X,Y pos of 4 corners*
0 Add a 4 corners polygon primitive as box body*
4,1,4,$2,$3,$4,$5,$6,$7,$8,$9,$2,$3,0*
0 Add four circle primitives for the rounded corners*
1,1,$1+$1,$2,$3*
1,1,$1+$1,$4,$5*
1,1,$1+$1,$6,$7*
1,1,$1+$1,$8,$9*
0 Add four rect primitives between the rounded corners*
20,1,$1+$1,$2,$3,$4,$5,0*
20,1,$1+$1,$4,$5,$6,$7,0*
20,1,$1+$1,$6,$7,$8,$9,0*
20,1,$1+$1,$8,$9,$2,$3,0*%
G04 Aperture macros list end*
%TA.AperFunction,ComponentPad*%
%ADD10RoundRect,0.250000X-0.550000X-0.550000X0.550000X-0.550000X0.550000X0.550000X-0.550000X0.550000X0*%
%TD*%
%TA.AperFunction,ComponentPad*%
%ADD11C,1.600000*%
%TD*%
%TA.AperFunction,ComponentPad*%
%ADD12RoundRect,0.412500X0.412500X-0.412500X0.412500X0.412500X-0.412500X0.412500X-0.412500X-0.412500X0*%
%TD*%
%TA.AperFunction,ComponentPad*%
%ADD13C,1.650000*%
%TD*%
%TA.AperFunction,ComponentPad*%
%ADD14R,1.800000X1.800000*%
%TD*%
%TA.AperFunction,ComponentPad*%
%ADD15C,1.800000*%
%TD*%
%TA.AperFunction,ComponentPad*%
%ADD16R,1.700000X1.700000*%
%TD*%
%TA.AperFunction,ComponentPad*%
%ADD17C,1.700000*%
%TD*%
%TA.AperFunction,ComponentPad*%
%ADD18C,2.000000*%
%TD*%
%TA.AperFunction,ComponentPad*%
%ADD19R,1.295400X1.295400*%
%TD*%
%TA.AperFunction,ComponentPad*%
%ADD20C,1.295400*%
%TD*%
%TA.AperFunction,ComponentPad*%
%ADD21RoundRect,0.250000X0.550000X0.550000X-0.550000X0.550000X-0.550000X-0.550000X0.550000X-0.550000X0*%
%TD*%
%TA.AperFunction,Conductor*%
%ADD22C,0.200000*%
%TD*%
G04 APERTURE END LIST*
D10*
%TO.P,C2,1*%
%TO.N,Net-(U1-THRES)*%
X107160967Y-83440679D03*
D11*
%TO.P,C2,2*%
%TO.N,GND*%
X109160967Y-83440679D03*
%TD*%
D12*
%TO.P,RV1,1,1_1*%
%TO.N,Net-(R2-Pad2)*%
X107660967Y-96980679D03*
D13*
%TO.P,RV1,2,2_2*%
%TO.N,Net-(U1-DISCH)*%
X107660967Y-94440679D03*
%TO.P,RV1,3,3_3*%
%TO.N,Net-(U1-THRES)*%
X107660967Y-91900679D03*
%TD*%
D11*
%TO.P,R2,1*%
%TO.N,Net-(U1-DISCH)*%
X113660967Y-73440679D03*
%TO.P,R2,2*%
%TO.N,Net-(R2-Pad2)*%
X113660967Y-81060679D03*
%TD*%
%TO.P,R3,1*%
%TO.N,Net-(D1-K)*%
X110660967Y-101130679D03*
%TO.P,R3,2*%
%TO.N,GND*%
X110660967Y-108750679D03*
%TD*%
D14*
%TO.P,D3,1,K_1*%
%TO.N,Net-(D1-K)*%
X68660967Y-79750679D03*
D15*
%TO.P,D3,2,A_2*%
%TO.N,Net-(D3-A)*%
X71200967Y-79750679D03*
%TD*%
D14*
%TO.P,D8,1,K_1*%
%TO.N,Net-(D1-K)*%
X138390967Y-79250679D03*
D15*
%TO.P,D8,2,A_2*%
%TO.N,Net-(D8-A)*%
X140930967Y-79250679D03*
%TD*%
D16*
%TO.P,J1,1,Pin_1_1*%
%TO.N,+5V*%
X98160967Y-107940679D03*
D17*
%TO.P,J1,2,Pin_2_2*%
%TO.N,GND*%
X100700967Y-107940679D03*
%TD*%
D14*
%TO.P,D6,1,K_1*%
%TO.N,Net-(D1-K)*%
X114620967Y-60750679D03*
D15*
%TO.P,D6,2,A_2*%
%TO.N,Net-(D6-A)*%
X117160967Y-60750679D03*
%TD*%
D18*
%TO.P,C1,1*%
%TO.N,GND*%
X114160967Y-89940679D03*
%TO.P,C1,2*%
%TO.N,Net-(U1-CONT)*%
X119160967Y-89940679D03*
%TD*%
D14*
%TO.P,D2,1,K_1*%
%TO.N,Net-(D1-K)*%
X68390967Y-68250679D03*
D15*
%TO.P,D2,2,A_2*%
%TO.N,Net-(D2-A)*%
X70930967Y-68250679D03*
%TD*%
D19*
%TO.P,U2,1,Q5_1*%
%TO.N,Net-(D6-A)*%
X93040967Y-69160679D03*
D20*
%TO.P,U2,2,Q1_2*%
%TO.N,Net-(D2-A)*%
X93040967Y-71700679D03*
%TO.P,U2,3,Q0_3*%
%TO.N,Net-(D1-A)*%
X93040967Y-74240679D03*
%TO.P,U2,4,Q2_4*%
%TO.N,Net-(D3-A)*%
X93040967Y-76780679D03*
%TO.P,U2,5,Q6_5*%
%TO.N,Net-(D7-A)*%
X93040967Y-79320679D03*
%TO.P,U2,6,Q7_6*%
%TO.N,Net-(D8-A)*%
X93040967Y-81860679D03*
%TO.P,U2,7,Q3_7*%
%TO.N,Net-(D4-A)*%
X93040967Y-84400679D03*
%TO.P,U2,8,VSS_8*%
%TO.N,GND*%
X93040967Y-86940679D03*
%TO.P,U2,9,Q8_9*%
%TO.N,Net-(D9-A)*%
X100660967Y-86940679D03*
%TO.P,U2,10,Q4_10*%
%TO.N,Net-(D5-A)*%
X100660967Y-84400679D03*
%TO.P,U2,11,Q9_11*%
%TO.N,Net-(D10-A)*%
X100660967Y-81860679D03*
%TO.P,U2,12,Cout_12*%
%TO.N,unconnected-(U2-Cout-Pad12)*%
X100660967Y-79320679D03*
%TO.P,U2,13,CKEN_13*%
%TO.N,GND*%
X100660967Y-76780679D03*
%TO.P,U2,14,CLK_14*%
%TO.N,Net-(U1-OUT)*%
X100660967Y-74240679D03*
%TO.P,U2,15,Reset_15*%
%TO.N,GND*%
X100660967Y-71700679D03*
%TO.P,U2,16,VDD_16*%
%TO.N,+5V*%
X100660967Y-69160679D03*
%TD*%
D14*
%TO.P,D10,1,K_1*%
%TO.N,Net-(D1-K)*%
X121390967Y-106750679D03*
D15*
%TO.P,D10,2,A_2*%
%TO.N,Net-(D10-A)*%
X123930967Y-106750679D03*
%TD*%
D14*
%TO.P,D9,1,K_1*%
%TO.N,Net-(D1-K)*%
X132890967Y-96750679D03*
D15*
%TO.P,D9,2,A_2*%
%TO.N,Net-(D9-A)*%
X135430967Y-96750679D03*
%TD*%
D21*
%TO.P,U1,1,GND_1*%
%TO.N,GND*%
X100160967Y-100940679D03*
D11*
%TO.P,U1,2,TRIG_2*%
%TO.N,Net-(U1-THRES)*%
X100160967Y-98400679D03*
%TO.P,U1,3,OUT_3*%
%TO.N,Net-(U1-OUT)*%
X100160967Y-95860679D03*
%TO.P,U1,4,~{RST}_4*%
%TO.N,+5V*%
X100160967Y-93320679D03*
%TO.P,U1,5,CONT_5*%
%TO.N,Net-(U1-CONT)*%
X92540967Y-93320679D03*
%TO.P,U1,6,THRES_6*%
%TO.N,Net-(U1-THRES)*%
X92540967Y-95860679D03*
%TO.P,U1,7,DISCH_7*%
%TO.N,Net-(U1-DISCH)*%
X92540967Y-98400679D03*
%TO.P,U1,8,VCC_8*%
%TO.N,+5V*%
X92540967Y-100940679D03*
%TD*%
D14*
%TO.P,D1,1,K_1*%
%TO.N,Net-(D1-K)*%
X79120967Y-58750679D03*
D15*
%TO.P,D1,2,A_2*%
%TO.N,Net-(D1-A)*%
X81660967Y-58750679D03*
%TD*%
D14*
%TO.P,D5,1,K_1*%
%TO.N,Net-(D1-K)*%
X84390967Y-103750679D03*
D15*
%TO.P,D5,2,A_2*%
%TO.N,Net-(D5-A)*%
X86930967Y-103750679D03*
%TD*%
D14*
%TO.P,D4,1,K_1*%
%TO.N,Net-(D1-K)*%
X75160967Y-91750679D03*
D15*
%TO.P,D4,2,A_2*%
%TO.N,Net-(D4-A)*%
X77700967Y-91750679D03*
%TD*%
D11*
%TO.P,R1,1*%
%TO.N,+5V*%
X106085967Y-69965679D03*
%TO.P,R1,2*%
%TO.N,Net-(U1-DISCH)*%
X113705967Y-69965679D03*
%TD*%
D14*
%TO.P,D7,1,K_1*%
%TO.N,Net-(D1-K)*%
X129890967Y-63750679D03*
D15*
%TO.P,D7,2,A_2*%
%TO.N,Net-(D7-A)*%
X132430967Y-63750679D03*
%TD*%
%TO.N,Net-(U1-THRES)*%
D22*
X99620967Y-98400679D02*
X97080967Y-95860679D01*
X107160967Y-83440679D02*
X107160967Y-91400679D01*
X107660967Y-91900679D02*
X106660967Y-91900679D01*
X100160967Y-98400679D02*
X99620967Y-98400679D01*
X97080967Y-95860679D02*
X92540967Y-95860679D01*
X106660967Y-91900679D02*
X100160967Y-98400679D01*
X107160967Y-91400679D02*
X107660967Y-91900679D01*
%TO.N,GND*%
X102660967Y-71940679D02*
X102420967Y-71700679D01*
X109160967Y-83440679D02*
X102500967Y-76780679D01*
X114160967Y-89940679D02*
X114160967Y-105250679D01*
X100160967Y-100940679D02*
X100160967Y-107400679D01*
X104660967Y-107940679D02*
X105470967Y-108750679D01*
X109160967Y-84940679D02*
X114160967Y-89940679D01*
X102660967Y-75440679D02*
X102660967Y-71940679D01*
X100660967Y-76780679D02*
X102500967Y-76780679D01*
X96660967Y-83320679D02*
X93040967Y-86940679D01*
X100160967Y-107400679D02*
X100700967Y-107940679D01*
X102420967Y-71700679D02*
X100660967Y-71700679D01*
X114160967Y-105250679D02*
X110660967Y-108750679D01*
X99820967Y-76780679D02*
X96660967Y-79940679D01*
X100660967Y-76780679D02*
X102000967Y-75440679D01*
X105470967Y-108750679D02*
X110660967Y-108750679D01*
X102000967Y-75440679D02*
X102660967Y-75440679D01*
X100700967Y-107940679D02*
X104660967Y-107940679D01*
X96660967Y-79940679D02*
X96660967Y-83320679D01*
X100660967Y-76780679D02*
X99820967Y-76780679D01*
X109160967Y-83440679D02*
X109160967Y-84940679D01*
%TO.N,Net-(U1-DISCH)*%
X92540967Y-98400679D02*
X93640967Y-99500679D01*
X100984621Y-109850679D02*
X99376223Y-108242281D01*
X102260967Y-99840679D02*
X107660967Y-94440679D01*
X99376223Y-102040679D02*
X99060967Y-101725423D01*
X93640967Y-99500679D02*
X102600967Y-99500679D01*
X115460967Y-105506314D02*
X111116602Y-109850679D01*
X102600967Y-99500679D02*
X107660967Y-94440679D01*
X115460967Y-75240679D02*
X115460967Y-105506314D01*
X99376223Y-108242281D02*
X99376223Y-102040679D01*
X99060967Y-100155935D02*
X99376223Y-99840679D01*
X113705967Y-73395679D02*
X113660967Y-73440679D01*
X99376223Y-99840679D02*
X102260967Y-99840679D01*
X111116602Y-109850679D02*
X100984621Y-109850679D01*
X113660967Y-73440679D02*
X115460967Y-75240679D01*
X99060967Y-101725423D02*
X99060967Y-100155935D01*
X113705967Y-69965679D02*
X113705967Y-73395679D01*
%TO.N,Net-(D1-K)*%
X129890967Y-63750679D02*
X131090967Y-64950679D01*
X75160967Y-86250679D02*
X68660967Y-79750679D01*
X68390967Y-78980679D02*
X68390967Y-68250679D01*
X138390967Y-79250679D02*
X138390967Y-72250679D01*
X68660967Y-79250679D02*
X68390967Y-78980679D01*
X68390967Y-68250679D02*
X68390967Y-67750679D01*
X138390967Y-72250679D02*
X129890967Y-63750679D01*
X84390967Y-100980679D02*
X75160967Y-91750679D01*
X121390967Y-106750679D02*
X131390967Y-96750679D01*
X133630967Y-64247736D02*
X133630967Y-63253622D01*
X129928024Y-59550679D02*
X115820967Y-59550679D01*
X132890967Y-96750679D02*
X132890967Y-84750679D01*
X68390967Y-68250679D02*
X77890967Y-58750679D01*
X133630967Y-63253622D02*
X129928024Y-59550679D01*
X132890967Y-84750679D02*
X138390967Y-79250679D01*
X77890967Y-58750679D02*
X79120967Y-58750679D01*
X131090967Y-64950679D02*
X132928024Y-64950679D01*
X131390967Y-96750679D02*
X132890967Y-96750679D01*
X75160967Y-91750679D02*
X75160967Y-86250679D01*
X115820967Y-59550679D02*
X114620967Y-60750679D01*
X84390967Y-103750679D02*
X84390967Y-100980679D01*
X132928024Y-64950679D02*
X133630967Y-64247736D01*
X68660967Y-79750679D02*
X68660967Y-79250679D01*
%TO.N,Net-(D3-A)*%
X90070967Y-79750679D02*
X93040967Y-76780679D01*
X71200967Y-79750679D02*
X90070967Y-79750679D01*
%TO.N,Net-(D8-A)*%
X71613910Y-81860679D02*
X93040967Y-81860679D01*
X73421610Y-75832979D02*
X70000967Y-79253622D01*
X92493267Y-70508379D02*
X99947331Y-70508379D01*
X70000967Y-80247736D02*
X71613910Y-81860679D01*
X140930967Y-69987937D02*
X130093709Y-59150679D01*
X94622731Y-75832979D02*
X73421610Y-75832979D01*
X99947331Y-70508379D02*
X94622731Y-75832979D01*
X130093709Y-59150679D02*
X113820967Y-59150679D01*
X104758667Y-68212979D02*
X92093267Y-68212979D01*
X92093267Y-70108379D02*
X92493267Y-70508379D01*
X140930967Y-79250679D02*
X140930967Y-69987937D01*
X70000967Y-79253622D02*
X70000967Y-80247736D01*
X113820967Y-59150679D02*
X104758667Y-68212979D01*
X92093267Y-68212979D02*
X92093267Y-70108379D01*
%TO.N,+5V*%
X91440967Y-99840679D02*
X91440967Y-95405044D01*
X91440967Y-95405044D02*
X92405332Y-94440679D01*
X92540967Y-100940679D02*
X91440967Y-99840679D01*
X99040967Y-94440679D02*
X100160967Y-93320679D01*
X105280967Y-69160679D02*
X106085967Y-69965679D01*
X92405332Y-94440679D02*
X99040967Y-94440679D01*
X92540967Y-100940679D02*
X92540967Y-102320679D01*
X100660967Y-69160679D02*
X105280967Y-69160679D01*
X92540967Y-102320679D02*
X98160967Y-107940679D01*
%TO.N,Net-(D6-A)*%
X106845967Y-71065679D02*
X105630332Y-71065679D01*
X105630332Y-71065679D02*
X104673032Y-70108379D01*
X117160967Y-60750679D02*
X106845967Y-71065679D01*
X104673032Y-70108379D02*
X93988667Y-70108379D01*
X93988667Y-70108379D02*
X93040967Y-69160679D01*
%TO.N,Net-(D2-A)*%
X93433518Y-75188379D02*
X93988667Y-74633230D01*
X93988667Y-74633230D02*
X93988667Y-72648379D01*
X70930967Y-68250679D02*
X77868667Y-75188379D01*
X93988667Y-72648379D02*
X93040967Y-71700679D01*
X77868667Y-75188379D02*
X93433518Y-75188379D01*
%TO.N,Net-(D1-A)*%
X93040967Y-74240679D02*
X81660967Y-62860679D01*
X81660967Y-62860679D02*
X81660967Y-58750679D01*
%TO.N,Net-(D7-A)*%
X116526652Y-61950679D02*
X107011652Y-71465679D01*
X132430967Y-63750679D02*
X130630967Y-61950679D01*
X94160967Y-78200679D02*
X93040967Y-79320679D01*
X105464646Y-71465679D02*
X104751946Y-70752979D01*
X104751946Y-70752979D02*
X100268416Y-70752979D01*
X107011652Y-71465679D02*
X105464646Y-71465679D01*
X130630967Y-61950679D02*
X116526652Y-61950679D01*
X100268416Y-70752979D02*
X94160967Y-76860428D01*
X94160967Y-76860428D02*
X94160967Y-78200679D01*
%TO.N,Net-(D4-A)*%
X85690967Y-91750679D02*
X93040967Y-84400679D01*
X77700967Y-91750679D02*
X85690967Y-91750679D01*
%TO.N,Net-(D5-A)*%
X86930967Y-97375044D02*
X99905332Y-84400679D01*
X99905332Y-84400679D02*
X100660967Y-84400679D01*
X86930967Y-103750679D02*
X86930967Y-97375044D01*
%TO.N,Net-(D10-A)*%
X123930967Y-106750679D02*
X120430967Y-110250679D01*
X120430967Y-110250679D02*
X91733910Y-110250679D01*
X85730967Y-104247736D02*
X85730967Y-96790679D01*
X91733910Y-110250679D02*
X85730967Y-104247736D01*
X85730967Y-96790679D02*
X100660967Y-81860679D01*
%TD*%
M02*
